<svg xmlns="http://www.w3.org/2000/svg" viewBox="0 0 1920 1080"><defs><style>.cls-1{fill:none;stroke:#000;stroke-miterlimit:10;}</style></defs><title>dna-full-page</title><g id="Layer_1" data-name="Layer 1"><path class="cls-1" d="M946.12,346l16.08,9.62c-8.05,4.86-17.48,10.52-28,16.79q-4.23,2.52-8.47,5c-11-6.49-19.74-11.48-19.74-11.48-43-25-73-45-93-60-13.85-10.39-30.1-24.62-39.44-46.67-.38-5.4-1.12-16.71,2.15-27.34a46.3,46.3,0,0,1,2.47-6.31,50.65,50.65,0,0,0,5.14,12.4h-.82s-4,1-4,9,4,9,4,9h15.67c9.19,8.55,21.36,17.18,36.65,27H823.5s-4,1-4,9,4,9,4,9h41.42c16.23,9.13,34.88,19.33,49,27H886.5s-4,1-4,9,4,9,4,9h45a12.91,12.91,0,0,1-4-9q0-.87.06-1.62L930.5,337v0c0,8,7,9,7,9Z"/><path class="cls-1" d="M1024.43,445.32c-1.34-2.22-5.6-6.74-18.62-16.32h12.9s4-1,4-9-4-9-4-9h-39c-5.09-3.37-10.75-7.05-17-11.08l4.49-2.51c14.48-8,19.9-11.56,31.35-19.91,18.29,12.73,30.23,30.85,33.15,39.5C1031.73,423.61,1034.39,434.24,1024.43,445.32Z"/><path class="cls-1" d="M805.5,203l9,9H784A93.34,93.34,0,0,1,797,194H814.5Z"/><path class="cls-1" d="M889.5,203c0,8-4,9-4,9h-67l-9-9,9-9h67S889.5,195,889.5,203Z"/><path class="cls-1" d="M782.5,256s-4-1-4-9,4-9,4-9h66s-4,1.5-4,9.5c0,5,4,8.5,4,8.5Z"/><path class="cls-1" d="M961.5,247c0,8-4,9-4,9h-104s-6-1-6-9,5-9,5-9h105S961.5,239,961.5,247Z"/><path class="cls-1" d="M819.5,292c0-8,4-9,4-9h105l9,9-9,9h-105S819.5,300,819.5,292Z"/><path class="cls-1" d="M941.5,292l-9-9h75s4,1,4,9-4,9-4,9h-75Z"/><path class="cls-1" d="M931.5,346h-45s-4-1-4-9,4-9,4-9h45s-4,1-4,9a12.91,12.91,0,0,0,4,9Z"/><path class="cls-1" d="M1003.89,328c-8.42,6.4-18.73,13.72-22.63,16.09L978.11,346H937.5s-7-1-7-9,6-9,6-9Z"/><path class="cls-1" d="M768.71,102a2.18,2.18,0,0,0-.4.16c.51-1.36,1.12-2.84,1.51-3.78.16-.39.28-.68.34-.84,0,0,0,0,0,.06a44.92,44.92,0,0,0,1.39,4.4Z"/><path class="cls-1" d="M807.12,141.68l-.91.73c-8.27,6.89-15.17,12.71-20.78,18.52a98.24,98.24,0,0,1-19.87-29.68c-.16-2.3-.39-5.69-.34-9.63,0-.35,0-.71,0-1.07,0-.72,0-1.46.08-2.22,0-.38,0-.76.07-1.14s0-.68.07-1c1.16,3.32,3.25,3.84,3.25,3.84h13.72C788.58,127.19,796.78,134.21,807.12,141.68Z"/><path class="cls-1" d="M1016.43,317.32c-1.34-2.22-5.6-6.74-18.62-16.32h9.69s4-1,4-9-4-9-4-9H971.76c-6.33-4.19-13.54-8.86-21.76-14.08-6.1-3.87-13.66-8.47-21.11-12.92H957.5s4-1,4-9-4-9-4-9H898.15l-.15-.08c-16.06-9.34-30.3-18-42.89-25.92H885.5s4-1,4-9-4-9-4-9H827.59q-9.84-6.69-17.75-12.5a294.86,294.86,0,0,1,26.88-20.24l4.28,2.66c31,18,87,48,87,48s27.66,16.56,57,34c21.81,13,32.76,27.21,38.71,43.08,0,1.92.11,3.86.31,6.62a.34.34,0,0,0,0,.1C1024.21,301.85,1023.49,309.47,1016.43,317.32Z"/><path class="cls-1" d="M945.12,792l16.08,9.62c-8.05,4.86-17.48,10.52-28,16.79q-4.23,2.52-8.47,5c-11-6.49-19.74-11.48-19.74-11.48-43-25-73-45-93-60-13.85-10.39-30.1-24.62-39.44-46.67-.38-5.4-1.12-16.71,2.15-27.34a46.3,46.3,0,0,1,2.47-6.31,50.65,50.65,0,0,0,5.14,12.4h-.82s-4,1-4,9,4,9,4,9h15.67c9.19,8.55,21.36,17.18,36.65,27H822.5s-4,1-4,9,4,9,4,9h41.42c16.23,9.13,34.88,19.33,49,27H885.5s-4,1-4,9,4,9,4,9h45a12.91,12.91,0,0,1-4-9q0-.87.06-1.62L929.5,783v0c0,8,7,9,7,9Z"/><path class="cls-1" d="M1023.43,891.32c-1.34-2.22-5.6-6.74-18.62-16.32h12.9s4-1,4-9-4-9-4-9h-39c-5.09-3.37-10.75-7-17-11.08l4.49-2.51c14.48-8,19.9-11.56,31.35-19.91,18.29,12.73,30.23,30.85,33.15,39.5C1030.73,869.61,1033.39,880.24,1023.43,891.32Z"/><path class="cls-1" d="M804.5,649l9,9H783A93.34,93.34,0,0,1,796,640H813.5Z"/><path class="cls-1" d="M888.5,649c0,8-4,9-4,9h-67l-9-9,9-9h67S888.5,641,888.5,649Z"/><path class="cls-1" d="M781.5,702s-4-1-4-9,4-9,4-9h66s-4,1.5-4,9.5c0,5,4,8.5,4,8.5Z"/><path class="cls-1" d="M960.5,693c0,8-4,9-4,9h-104s-6-1-6-9,5-9,5-9h105S960.5,685,960.5,693Z"/><path class="cls-1" d="M818.5,738c0-8,4-9,4-9h105l9,9-9,9h-105S818.5,746,818.5,738Z"/><path class="cls-1" d="M940.5,738l-9-9h75s4,1,4,9-4,9-4,9h-75Z"/><path class="cls-1" d="M930.5,792h-45s-4-1-4-9,4-9,4-9h45s-4,1-4,9a12.91,12.91,0,0,0,4,9Z"/><path class="cls-1" d="M1002.89,774c-8.42,6.4-18.73,13.72-22.63,16.09L977.11,792H936.5s-7-1-7-9,6-9,6-9Z"/><path class="cls-1" d="M767.71,548a2.18,2.18,0,0,0-.4.16c.51-1.36,1.12-2.84,1.51-3.78.16-.39.28-.68.34-.84,0,0,0,0,0,.06a44.92,44.92,0,0,0,1.39,4.4Z"/><path class="cls-1" d="M806.12,587.68l-.91.73c-8.27,6.89-15.17,12.71-20.78,18.52a98.24,98.24,0,0,1-19.87-29.68c-.16-2.3-.39-5.69-.34-9.63,0-.35,0-.71,0-1.07,0-.72,0-1.46.08-2.22,0-.38,0-.76.07-1.14s0-.68.07-1c1.16,3.32,3.25,3.84,3.25,3.84h13.72C787.58,573.19,795.78,580.21,806.12,587.68Z"/><path class="cls-1" d="M1015.43,763.32c-1.34-2.22-5.6-6.74-18.62-16.32h9.69s4-1,4-9-4-9-4-9H970.76c-6.33-4.19-13.54-8.86-21.76-14.08-6.1-3.87-13.66-8.47-21.11-12.92H956.5s4-1,4-9-4-9-4-9H897.15l-.15-.08c-16.06-9.34-30.3-18-42.89-25.92H884.5s4-1,4-9-4-9-4-9H826.59q-9.84-6.69-17.75-12.5a294.86,294.86,0,0,1,26.88-20.24l4.28,2.66c31,18,87,48,87,48s27.66,16.56,57,34c21.81,13,32.76,27.21,38.71,43.08,0,1.92.11,3.86.31,6.62a.34.34,0,0,0,0,.1C1023.21,747.85,1022.49,755.47,1015.43,763.32Z"/><path class="cls-1" d="M767.31,1079.6c.08-.31.17-.62.27-.92s.11-.36.17-.54c.11-.36.22-.71.35-1.06s.23-.69.35-1a.44.44,0,0,1,.06-.16q.33-1,.72-1.89c.26-.68.55-1.35.85-2q.1-.27.24-.54c.22-.47.44-.94.67-1.41.52-1.06,1.08-2.11,1.68-3.13.19-.35.39-.69.6-1s.39-.65.6-1,.26-.43.41-.64c.33-.51.67-1,1-1.52s.61-.88.93-1.31q1.17-1.62,2.49-3.21c.43-.51.86-1,1.31-1.55.31-.35.62-.71,1-1.07s.64-.71,1-1.07c.53-.58,1.09-1.17,1.67-1.76l.86-.88c1.46-1.47,3-3,4.63-4.44l1-.94c1-1,2.11-1.9,3.22-2.87l1.68-1.46c2.85-2.46,5.9-5,9.16-7.73,1.72-1.39,3.44-2.76,5.14-4.11l2.12-1.66q3.6-2.82,7.14-5.51,1.78-1.36,3.56-2.68,4.1-3.07,8.12-6l3.46-2.48h-20s-6-1-6-9,5-9,5-9h47.75c15.63-10,30.58-18.68,45.12-27H882.71l9-9-9-9h54.13q2.19-1.29,4.37-2.59l3.8-2.27,2.68-1.6c6.33-3.78,12.21-7.31,17.56-10.53l1.25-.75,2.16-1.31,2.64-1.59,5.34-3.22.84-.51,4.34-2.63H904.71s-5-1-5-9,5-9,5-9h103.53c1.39-1,2.75-2.07,4.06-3.08l2.16-1.67,1.82-1.43.84-.68c1.59-1.28,3-2.43,4-3.35.22-.21.44-.4.63-.59a8.13,8.13,0,0,0,1.39-1.55h0c.43-.47.84-.93,1.23-1.4l.52-.65c.63-.8,1.19-1.59,1.69-2.37.16-.24.31-.48.46-.72.3-.49.57-1,.82-1.45q.2-.36.36-.72c.17-.35.33-.69.47-1a6.06,6.06,0,0,0,.28-.65c.07-.15.13-.3.19-.45s.1-.25.14-.38l.07-.21s0,0,0-.06,0-.07,0-.11,0,0,0,0v0c0-.15.11-.29.16-.44s0-.08,0-.13c.08-.23.15-.47.21-.7s.12-.42.17-.63a2.12,2.12,0,0,0,.09-.31,1.24,1.24,0,0,0,0-.16.29.29,0,0,0,0-.09.2.2,0,0,0,0-.07c.06-.21.11-.41.15-.61q.14-.63.24-1.23c0-.19.07-.38.09-.56a2.11,2.11,0,0,0,0-.21,3.41,3.41,0,0,0,.06-.43c0-.36.09-.7.12-1,0-.15,0-.29,0-.44l.06-.87,0-.57c0-.28,0-.55,0-.81.07-3.48-.32-6.56-.33-9.07a91.58,91.58,0,0,1,5.5,32.41c0,10-2,35-21,49s-23,17-41,27-102.77,58.36-115,66c-1.61,1-3.2,2-4.76,3s-3.09,2-4.6,2.92l-3.54,2.28-2,1.32-2,1.31c-.67.43-1.32.87-2,1.3-1.89,1.25-3.74,2.48-5.54,3.71l-1.45,1c-.48.32-.95.65-1.42,1l-2.8,1.94c-1.16.81-2.29,1.62-3.41,2.42q-2.55,1.83-5,3.65c-.79.59-1.57,1.17-2.34,1.76s-1.59,1.22-2.36,1.83c-.51.39-1,.79-1.51,1.19l-1.06.85c-.52.41-1,.82-1.53,1.24l-1,.82-1.43,1.2-1.6,1.36-1.06.93c-.7.61-1.39,1.22-2.07,1.84q-2.18,2-4.18,3.93"/><path class="cls-1" d="M1021.71,866.05c0,8-4,9-4,9h-66l-9-9,9-9h66S1021.71,858.05,1021.71,866.05Z"/><path class="cls-1" d="M800.56,1080.22q2-2,4.18-3.93c.67-.61,1.36-1.23,2.07-1.84l1.06-.93,1.6-1.36,1.43-1.2,1-.82c.5-.42,1-.83,1.53-1.24l1.06-.85c.5-.4,1-.8,1.51-1.19.77-.61,1.56-1.22,2.36-1.83s1.55-1.17,2.34-1.76q2.43-1.82,5-3.65c1.12-.8,2.25-1.61,3.41-2.42l2.8-1.94c.47-.33.94-.66,1.42-1l1.45-1c1.8-1.23,3.65-2.46,5.54-3.71.65-.43,1.3-.87,2-1.3l2-1.31,2-1.32,3.54-2.28q2.26-1.45,4.6-2.92c1.56-1,3.15-2,4.76-3,12.23-7.64,97-56,115-66s22-13,41-27,21-39,21-49a91.58,91.58,0,0,0-5.5-32.41c0,2.51.4,5.59.33,9.07,0,.26,0,.53,0,.81l0,.57-.06.87c0,.15,0,.29,0,.44,0,.34-.07.68-.12,1a3.41,3.41,0,0,1-.06.43,2.11,2.11,0,0,1,0,.21c0,.18,0,.37-.09.56q-.1.6-.24,1.23c0,.22-.1.45-.16.68a.29.29,0,0,1,0,.09,1.24,1.24,0,0,1,0,.16c-.07.31-.16.62-.26.94s-.13.47-.21.7c0,0,0,.09,0,.13-.1.29-.2.59-.32.89,0,.13-.09.25-.14.38s-.12.3-.19.45a6.06,6.06,0,0,1-.28.65c-.14.34-.3.68-.47,1s-.23.48-.36.72c-.25.48-.52,1-.82,1.45-.14.24-.3.48-.46.72-.5.78-1.06,1.57-1.69,2.37l-.52.65c-.39.47-.8.93-1.23,1.4h0a8.13,8.13,0,0,1-1.39,1.55l-.63.59c-1,.92-2.4,2.07-4,3.35l-.84.68-1.82,1.43L1012.3,901c-1.31,1-2.67,2-4.06,3.08-7.83,5.85-16.48,12-20,14.09l-6.44,3.91-4.34,2.63-.84.51-5.34,3.22L968.66,930l-2.16,1.31-1.25.75c-5.35,3.22-11.23,6.75-17.56,10.53l-2.68,1.6-3.8,2.27q-2.18,1.31-4.37,2.59c-10.27,6.05-20.65,11.93-31.26,18-14.54,8.32-29.49,17-45.12,27-8.68,5.54-17.57,11.49-26.71,18-1.15.81-2.3,1.64-3.46,2.48q-4,2.9-8.12,6-1.77,1.32-3.56,2.68-3.54,2.69-7.14,5.51l-2.12,1.66c-1.7,1.35-3.42,2.72-5.14,4.11-3.26,2.72-6.31,5.27-9.16,7.73l-1.68,1.46c-1.11,1-2.18,1.92-3.22,2.87l-1,.94c-1.62,1.49-3.17,3-4.63,4.44l-.86.88c-.58.59-1.14,1.18-1.67,1.76-.34.36-.67.71-1,1.07s-.64.72-1,1.07c-.45.52-.89,1-1.31,1.55q-1.32,1.59-2.49,3.21c-.33.43-.64.87-.93,1.31s-.7,1-1,1.52c-.15.21-.28.42-.41.64s-.41.64-.6,1-.41.68-.6,1c-.6,1-1.16,2.07-1.68,3.13-.23.47-.46.94-.67,1.41q-.14.27-.24.54c-.3.67-.59,1.34-.85,2s-.5,1.25-.72,1.89a.44.44,0,0,0-.06.16c-.13.33-.24.68-.35,1s-.24.7-.35,1.06c-.06.18-.12.36-.17.54s-.19.61-.27.92c0,.12-.08.24-.11.36"/><path id="LeftSparWithBars" class="cls-1" d="M1028.21,767.46c0,10-2,35-21,49s-23,17-41,27c-4.53,2.52-13.3,7.47-24.07,13.59h5.57l-9,9,9,9H910.57c-19.32,11-38.77,22.23-50.31,29h39.45a14.34,14.34,0,0,0-3.25,9,13.16,13.16,0,0,0,3.25,9l-68-.07c-14.48,9.6-26.3,18.34-35.8,27.07h82.8l9,9-9,9h-99a83.38,83.38,0,0,0-11.47,22.41l0,.08a45.49,45.49,0,0,0-2,4.69,2,2,0,0,1,.43-.18h42s-3.74,1-4,9c-.21,6.5,4,9,4,9h-42s-2.09-.52-3.25-3.84a99.29,99.29,0,0,0,.1,15.09,98.72,98.72,0,0,1-7.35-33.84c-2-47,10-58,40-83,52-42,95.35-63.16,137-88,20.54-12.25,37-22.2,47-28.32,6.82-4.15,33.23-23.42,34.87-26.44h0c10.3-11.19,7.59-22,7.57-28.64A91.58,91.58,0,0,1,1028.21,767.46Z"/><path id="LeftSpar" class="cls-1" d="M1028.21,767.46c0,10-2,35-21,49s-23,17-41,27-102.77,58.36-115,66c-48,30-73,50-83,80,0,0-1.79,4.2-2.5,6.5-3.27,10.63-2.53,21.94-2.15,27.34a98.72,98.72,0,0,1-7.35-33.84c-2-47,10-58,40-83,52-42,95.35-63.16,137-88,20.54-12.25,37-22.2,47-28.32,6.82-4.15,33.23-23.42,34.87-26.44h0c10.3-11.19,7.59-22,7.57-28.64A91.58,91.58,0,0,1,1028.21,767.46Z"/><path class="cls-1" d="M768.18,989.65q-.2.39-.36.78c.16-.39.28-.68.34-.84Z"/><path class="cls-1" d="M766.71,994a2.18,2.18,0,0,0-.4.16c.51-1.36,1.12-2.84,1.51-3.78.16-.39.28-.68.34-.84,0,0,0,0,0,.06a44.92,44.92,0,0,0,1.39,4.4Z"/><path class="cls-1" d="M805.12,1033.68l-.91.73c-8.27,6.89-15.17,12.71-20.78,18.52a98.24,98.24,0,0,1-19.87-29.68c-.16-2.3-.39-5.69-.34-9.63,0-.35,0-.71,0-1.07,0-.72,0-1.46.08-2.22,0-.38,0-.76.07-1.14s0-.68.07-1c1.16,3.32,3.25,3.84,3.25,3.84h13.72C786.58,1019.19,794.78,1026.21,805.12,1033.68Z"/><path class="cls-1" d="M816.86,1080q-4.77-3.33-9-6.44l0,0a294.86,294.86,0,0,1,26.88-20.24l0,0,4.24,2.63c12.36,7.17,28.68,16.25,43.85,24.58"/><path class="cls-1" d="M1038.15,0c0,1.15.06,2.28.06,3.41,0,10-2,35-21,49s-23,17-41,27-102.77,58.36-115,66c-8.94,5.59-17.09,10.83-24.49,15.85q-2.93,2-5.69,3.93l-3.35,2.38c-2.47,1.77-4.83,3.52-7.11,5.26-.55.41-1.1.83-1.63,1.25l-.94.73c-.51.39-1,.79-1.51,1.19-.76.6-1.51,1.2-2.24,1.8-.51.41-1,.82-1.5,1.24s-1,.81-1.46,1.23-1,.81-1.45,1.23A142.78,142.78,0,0,0,797,194c-.33.36-.66.73-1,1.09-.62.71-1.23,1.41-1.82,2.12l0,.07c-.59.7-1.16,1.4-1.71,2.11s-1.1,1.41-1.63,2.13-.93,1.25-1.38,1.89l-.74,1.06c-.28.41-.56.82-.83,1.24q-.83,1.23-1.59,2.49c-.26.42-.51.84-.76,1.26-.5.84-1,1.69-1.44,2.54a82.08,82.08,0,0,0-5.82,13.41s0,.05,0,.08l-.05.11a46.3,46.3,0,0,0-2.47,6.31c-3.27,10.63-2.53,21.94-2.15,27.34a98.72,98.72,0,0,1-7.35-33.84c-1.45-34,4.45-49.2,19.22-64.48l1.07-1.09,1.1-1.09.58-.57h0l.94-.9,1.86-1.74.08-.08,1.87-1.69,1.88-1.68L795,152c1.26-1.11,2.56-2.23,3.91-3.38,2.32-2,4.77-4,7.35-6.18l.91-.73q4.71-3.8,9.33-7.36l1.79-1.38q1.78-1.38,3.55-2.7c1-.78,2-1.54,3.06-2.3q3.75-2.81,7.44-5.46l3.46-2.48h-20s-6-1-6-9,5-9,5-9h47.75q3.91-2.5,7.76-4.89L874,94.77,878.59,92l4-2.42.19-.11q6.3-3.78,12.47-7.35L899,80l8.61-5H884.71l9-9-9-9h54.13q2.19-1.29,4.37-2.59c6.42-3.83,12.44-7.43,18-10.76l3.27-2L971,37.75l2.31-1.39L983.82,30H906.71s-5-1-5-9,5-9,5-9h103.53c1.39-1,2.75-2.07,4.06-3.08l2.16-1.67,1.82-1.43.84-.68,1-.85.79-.65.18-.15.88-.75.8-.7a20.93,20.93,0,0,0,1.93-1.88,1.53,1.53,0,0,0,.13-.16"/><path class="cls-1" d="M1038.15,0c0,1.15.06,2.28.06,3.41,0,10-2,35-21,49s-23,17-41,27-102.77,58.36-115,66c-8.94,5.59-17.09,10.83-24.49,15.85q-2.93,2-5.69,3.93l-3.35,2.38c-2.47,1.77-4.83,3.52-7.11,5.26-.55.41-1.1.83-1.63,1.25l-.94.73c-.51.39-1,.79-1.51,1.19-.76.6-1.51,1.2-2.24,1.8-.51.41-1,.82-1.5,1.24s-1,.81-1.46,1.23-1,.81-1.45,1.23A142.78,142.78,0,0,0,797,194c-.33.36-.66.73-1,1.09-.62.71-1.23,1.41-1.82,2.12l0,.07c-.59.7-1.16,1.4-1.71,2.11s-1.1,1.41-1.63,2.13-.93,1.25-1.38,1.89l-.74,1.06c-.28.41-.56.82-.83,1.24q-.83,1.23-1.59,2.49c-.26.42-.51.84-.76,1.26-.5.84-1,1.69-1.44,2.54a82.08,82.08,0,0,0-5.82,13.41s0,.05,0,.08l-.05.11a46.3,46.3,0,0,0-2.47,6.31c-3.27,10.63-2.53,21.94-2.15,27.34a98.72,98.72,0,0,1-7.35-33.84c-1.45-34,4.45-49.2,19.22-64.48l1.07-1.09,1.1-1.09.58-.57h0l.94-.9,1.86-1.74.08-.08,1.87-1.69,1.88-1.68L795,152c1.26-1.11,2.56-2.23,3.91-3.38,2.32-2,4.77-4,7.35-6.18l.91-.73q4.71-3.8,9.33-7.36l1.79-1.38q1.78-1.38,3.55-2.7c1-.78,2-1.54,3.06-2.3q3.75-2.81,7.44-5.46l3.46-2.48c9.14-6.51,18-12.46,26.71-18q3.91-2.5,7.76-4.89L874,94.77,878.59,92l4-2.42.19-.11q6.3-3.78,12.47-7.35L899,80l8.61-5c10.61-6.07,21-12,31.26-18q2.19-1.29,4.37-2.59c6.42-3.83,12.44-7.43,18-10.76l3.27-2L971,37.75l2.31-1.39L983.82,30l6.44-3.91c3.5-2.13,12.15-8.24,20-14.09,1.39-1,2.75-2.07,4.06-3.08l2.16-1.67,1.82-1.43.84-.68,1-.85.79-.65.18-.15.88-.75c.28-.24.55-.47.8-.7a20.93,20.93,0,0,0,1.93-1.88l.14-.16"/><path class="cls-1" d="M883,0l-2.3,1.32-2.49,1.44L875.7,4.19l-1.89,1.09-.11.06-2.63,1.53-3.43,2-2.4,1.4-.77.45-1.11.64c-.37.23-.74.44-1.1.65h39.45a14.34,14.34,0,0,0-3.25,9,13.16,13.16,0,0,0,3.25,9l-68-.07q-2.72,1.8-5.31,3.56l-2.56,1.76L823.34,37l-.19.13c-2.35,1.66-4.63,3.29-6.82,4.9-1.09.81-2.17,1.61-3.22,2.41S811,46,810,46.81c-.84.66-1.67,1.31-2.49,2-1.38,1.1-2.71,2.2-4,3.3s-2.33,2-3.45,3c-.73.64-1.44,1.28-2.14,1.93h82.8l9,9-9,9h-99a85.7,85.7,0,0,0-5.35,8.47l-.52,1c-.25.46-.49.92-.73,1.39l-.7,1.4c-.23.47-.46.94-.68,1.42-.44.94-.86,1.9-1.26,2.86-.18.41-.35.83-.51,1.24q-.93,2.3-1.72,4.68s0,0,0,.08l-.05.11c-.12.24-.23.48-.34.72a.14.14,0,0,1,0,.06.47.47,0,0,0-.05.1h0c-.54,1.17-1,2.41-1.49,3.69l0,0h0a2.3,2.3,0,0,1,.39-.16h42s-3.74,1-4,9c-.21,6.5,4,9,4,9h-42s-2.09-.52-3.25-3.84c0,.34-.05.69-.07,1s0,.77-.07,1.14c0,.75-.07,1.49-.08,2.22,0,.36,0,.72,0,1.07,0,1.74,0,3.38.06,4.86h0c0,.14,0,.28,0,.43l0,.47,0,.71c0,.83.09,1.61.14,2.3,0,.3,0,.58.06.85a98.72,98.72,0,0,1-7.35-33.84c-2-47,10-58,40-83Q807.68,6.76,816.77,0"/><path class="cls-1" d="M883,0l-2.3,1.32-2.49,1.44L875.7,4.19l-1.89,1.09-.11.06-2.63,1.53-3.43,2-2.4,1.4-.77.45-1.11.64c-.37.23-.74.44-1.1.65-4.19,2.46-7.33,4.34-9,5.41-7,4.36-13.47,8.51-19.5,12.52q-2.72,1.79-5.31,3.56c-.86.58-1.72,1.17-2.56,1.76s-1.68,1.15-2.5,1.73l-.19.13q-3.54,2.47-6.82,4.9c-1.09.81-2.17,1.61-3.22,2.41S811,46,810,46.81c-.84.66-1.67,1.31-2.49,2-1.38,1.1-2.71,2.2-4,3.3s-2.33,2-3.45,3c-.73.64-1.44,1.28-2.14,1.93a116.59,116.59,0,0,0-16.23,18,85.7,85.7,0,0,0-5.35,8.47c-.19.32-.36.63-.52,1s-.5.92-.73,1.39-.48.93-.7,1.4-.46.94-.68,1.42c-.44.94-.86,1.89-1.26,2.86-.18.41-.35.82-.51,1.24q-.93,2.3-1.72,4.68l-.05.13h0l-.13.32a1.73,1.73,0,0,0-.1.24,1.65,1.65,0,0,1-.09.21l-.07.16h0c-.08.2-.18.43-.28.69s-.11.26-.16.39c-.3.72-.63,1.55-.93,2.37a2,2,0,0,0-.08.22h0c-.23.63-.44,1.24-.6,1.75a58.11,58.11,0,0,0-2.25,12.25c0,.34-.05.69-.07,1s0,.76-.07,1.14c0,.75-.07,1.49-.08,2.22,0,.36,0,.72,0,1.07,0,1.74,0,3.38.06,4.86,0,.15,0,.3,0,.44l0,.47,0,.71c0,.83.09,1.61.14,2.3,0,.3,0,.58.06.85a98.72,98.72,0,0,1-7.35-33.84c-2-47,10-58,40-83Q807.68,6.76,816.77,0"/><path class="cls-1" d="M770.18,97.6q-.2.39-.36.78c.16-.39.28-.68.34-.84C770.17,97.56,770.17,97.58,770.18,97.6Z"/><path id="RightSparWithBars" class="cls-1" d="M1037.21,449.46c0,10-2,35-21,49s-23,17-41,27-102.77,58.36-115,66c-48,30-73,50-83,80l0,.08a46.13,46.13,0,0,0-2.52,6.42c-3.27,10.63-2.53,21.94-2.15,27.34a98.72,98.72,0,0,1-7.35-33.84c-2-47,10-58,40-83,10.16-8.21,20-15.62,29.54-22.41h-20s-6-1-6-9,5-9,5-9h47.75c15.63-10,30.58-18.68,45.12-27H883.71l9-9-9-9h54.13q2.19-1.29,4.37-2.59c16.62-9.91,30.57-18.32,40.61-24.41H905.71s-5-1-5-9,5-9,5-9h103.53c7.42-5.56,14.09-10.88,14.89-12.35h0c10.3-11.19,7.59-22,7.57-28.64A91.58,91.58,0,0,1,1037.21,449.46Z"/><path class="cls-1" d="M1022.71,420.05c0,8-4,9-4,9h-66l-9-9,9-9h66S1022.71,412.05,1022.71,420.05Z"/><path id="RightSpar" class="cls-1" d="M1037.21,449.46c0,10-2,35-21,49s-23,17-41,27-102.77,58.36-115,66c-48,30-73,50-83,80l0,.08a46.13,46.13,0,0,0-2.52,6.42c-3.27,10.63-2.53,21.94-2.15,27.34a98.72,98.72,0,0,1-7.35-33.84c-2-47,10-58,40-83,52-42,95.35-63.16,137-88,20.54-12.25,37-22.2,47-28.32,6.82-4.15,33.23-23.42,34.87-26.44h0c10.3-11.19,7.59-22,7.57-28.64A91.58,91.58,0,0,1,1037.21,449.46Z"/><path id="LeftSparWithBars-2" data-name="LeftSparWithBars" class="cls-1" d="M1029.21,321.46c0,10-2,35-21,49s-23,17-41,27c-4.53,2.52-13.3,7.47-24.07,13.59h5.57l-9,9,9,9H911.57c-19.32,11-38.77,22.23-50.31,29h39.45a14.34,14.34,0,0,0-3.25,9,13.16,13.16,0,0,0,3.25,9l-68-.07c-14.48,9.6-26.3,18.34-35.8,27.07h82.8l9,9-9,9h-99a83.38,83.38,0,0,0-11.47,22.41l0,.08a45.49,45.49,0,0,0-2,4.69,2,2,0,0,1,.43-.18h42s-3.74,1-4,9c-.21,6.5,4,9,4,9h-42s-2.09-.52-3.25-3.84a99.29,99.29,0,0,0,.1,15.09,98.72,98.72,0,0,1-7.35-33.84c-2-47,10-58,40-83,52-42,95.35-63.16,137-88,20.54-12.25,37-22.2,47-28.32,6.82-4.15,33.23-23.42,34.87-26.44h0c10.3-11.19,7.59-22,7.57-28.64A91.58,91.58,0,0,1,1029.21,321.46Z"/><path id="LeftSpar-2" data-name="LeftSpar" class="cls-1" d="M1029.21,321.46c0,10-2,35-21,49s-23,17-41,27-102.77,58.36-115,66c-48,30-73,50-83,80,0,0-1.79,4.2-2.5,6.5-3.27,10.63-2.53,21.94-2.15,27.34a98.72,98.72,0,0,1-7.35-33.84c-2-47,10-58,40-83,52-42,95.35-63.16,137-88,20.54-12.25,37-22.2,47-28.32,6.82-4.15,33.23-23.42,34.87-26.44h0c10.3-11.19,7.59-22,7.57-28.64A91.58,91.58,0,0,1,1029.21,321.46Z"/><path class="cls-1" d="M769.18,543.65q-.2.39-.36.78c.16-.39.28-.68.34-.84Z"/></g></svg>