<svg xmlns="http://www.w3.org/2000/svg" viewBox="0 0 309.03 1080"><defs><style>.cls-1{fill:#333;}</style></defs><title>dna-inverted</title><g id="Layer_2" data-name="Layer 2"><path class="cls-1" d="M267,834.43c0-6.39-2.61-7.78-3.16-8H192.41l8,8-8,8h71.43C264.36,842.22,267,840.86,267,834.43Z"/><path class="cls-1" d="M217,789.43c0-6.39-2.61-7.78-3.16-8H111.1c-.63.14-5.1,1.35-5.1,8s5.39,7.88,6.08,8H213.84C214.36,797.22,217,795.86,217,789.43Z"/><path class="cls-1" d="M145,745.43c0-6.39-2.61-7.78-3.16-8H76.41l-8,8,8,8h65.43C142.36,753.22,145,751.86,145,745.43Z"/><path class="cls-1" d="M55.28,735.43H72.42l-10,10,10,10h-32a82.52,82.52,0,0,0-5.07,11.3l.27,1a48.82,48.82,0,0,0,4.76,11.66h65.1a13.44,13.44,0,0,0-4.51,10.5c0,4.47,4.64,9.5,4.64,9.5H57.25c8,7.17,18.78,15,34.36,25h92.8l10,10-10,10-59.18,0c12.53,7,27.78,15.42,45.45,25H188.5a11.5,11.5,0,0,0-4.26,7.27c.45.24,1,.54,1.47.82s.94.54,1.34.76c.55-7.71,6.72-8.82,6.79-8.84h66.41c5.95-4.53,10.77-8.47,11.37-9.57l.11-.1c-1.58-2.25-6-6.67-17.76-15.33H187.59l10-10-10-10H225c-5.74-3.76-12.12-7.87-19-12.25-5.48-3.48-12.49-7.77-20.85-12.76H111.86a9.61,9.61,0,0,1-7.86-10c0-8.75,6.77-10,6.83-10h40.11c-14-8.2-27.36-16.27-39.62-24H75.59l-10-10,10-10h5.27c-5.11-3.5-10-7-14.63-10.34A148.69,148.69,0,0,0,55.28,735.43Z"/><path class="cls-1" d="M140,878.2c0,.18,0,.36,0,.55s0,.45,0,.68c0,6.39,2.61,7.78,3.16,8h41.62a13.37,13.37,0,0,1-2.78-8c0-4.12,1-6.56,2.13-8h-41.9C141.85,871.69,140.25,873.06,140,878.2Z"/><path class="cls-1" d="M189,879.43c0,.26,0,1.08,0,1.24,0,4.76,6.47,6.76,8,6.75h37.34l2.91-1.77c3.56-2.16,12.37-8.39,20.16-14.23H194.1C193.47,871.57,189,872.78,189,879.43Z"/><path class="cls-1" d="M241,789.21c-29-17.24-56.73-33.84-57-34-.52-.28-56.33-30.19-87-48l-3.76-2.33a299.82,299.82,0,0,0-25.29,19c5.17,3.76,10.69,7.64,16.45,11.56l57.84,0c.2,0,4.76,1.29,4.76,10s-4.56,9.92-4.76,10l-.24,0H115.08c12.36,7.74,25.74,15.81,39.83,24h59.21l.12,0c.2,0,4.76,1.29,4.76,10s-4.56,9.92-4.76,10l-.24,0H189c7.12,4.28,13.17,8,18,11.08,7.9,5,15.14,9.7,21.52,13.92h35.56l.12,0c.2,0,4.76,1.29,4.76,10s-4.56,9.92-4.76,10l-.24,0h-6.67c8.08,6.06,13.34,10.65,15.69,13.69a29,29,0,0,0,2.71-3.78c.52-.92,1-2,1.6-3.17.18-.42.49-1.26.49-1.26,1.55-5.22,1.55-6.22,1.48-13.54,0-.4-.14-2.4-.17-3s0-1.15-.05-1.69v-.4C272.52,814.14,260.41,800.76,241,789.21Z"/><path class="cls-1" d="M206.24,889.43l9.18,5.5,3.43,2.05c4.84-2.92,9-5.45,12.48-7.55Z"/><path class="cls-1" d="M275,509.13H210.59l-8,8,8,8h48.74l-.06,0h15.79a3.31,3.31,0,0,0,1.21-.92c.9-1,1.91-3.06,1.91-7C278.18,510.73,275.57,509.35,275,509.13Z"/><path class="cls-1" d="M159.18,564.13c0,6.54,3.52,7.83,4.12,8H239l6.2-3.76c3.37-2,10.54-7.1,17.48-12.24H163.3C162.72,556.29,159.18,557.57,159.18,564.13Z"/><path class="cls-1" d="M201.77,509.13h-1.9c-8.47,4.81-18.2,10.35-28.08,16h30l-8-8Z"/><path class="cls-1" d="M143.59,617.13h19.19l6.79-3.88c7.23-4.13,14.16-8.09,21.06-12.12h-47l8,8Z"/><path class="cls-1" d="M28.83,635c-.18.44-2.17,5.78-2.2,5.88l-.3.73,1.32-1.81a44.15,44.15,0,0,0,1.36,4.3l-.11,0H66.79s-4.38,3-4.61,10c-.19,5.78,4.55,10,4.55,10h-25C47.21,670,54.23,676,63.55,682.82c6.56-5,23.59-18,24.54-18.69H72c-.07,0-6.84-1.24-6.84-10s5.57-9.93,5.8-10l.2,0h46.46c2.79-1.78,39.26-23.63,41.65-25H138.77l10-10-10-10H194c1.38-.81,41.41-24.83,41.68-25H163.08l-.1,0c-.23-.05-5.8-1.26-5.8-10s5.57-9.93,5.8-10l.2,0h102.2l6.59-5a45.37,45.37,0,0,0,7.7-6.76c-1.63-2.27-6.08-6.68-17.62-15.19H209.76l-10-10,10-10H233l-13.76-8.94c-6,3.37-15.3,8.63-15.81,8.93h3.19l-10,10,10,10H168.31c-.16.09-45.19,26-46.89,27h37l-1.53,1.67a13.51,13.51,0,0,0-3,8.33,12.35,12.35,0,0,0,2.95,8.29l1.72,1.71h-2.42l-66.7-.07c-14.26,9.47-25,17.49-33.5,25.07h79.61l10,10-10,10H37.67A73.54,73.54,0,0,0,28.83,635Z"/><path class="cls-1" d="M154.23,556.13H118c-4,2.37-7.07,4.19-8.79,5.26-5.93,3.71-11.5,7.25-16.73,10.67l61.68.07a15,15,0,0,1-2.23-8A15.31,15.31,0,0,1,154.23,556.13Z"/><path class="cls-1" d="M59.59,745.43l8-8H53.9a92.93,92.93,0,0,0-11.66,16H67.59Z"/><path class="cls-1" d="M134.77,601.13H53.68a117,117,0,0,0-14.61,16h95.7l8-8Z"/><path class="cls-1" d="M154.13,1001.69H117.9c-4,2.37-7.07,4.19-8.79,5.26-5.93,3.71-11.5,7.25-16.73,10.67l61.68.07a15,15,0,0,1-2.23-8A15.31,15.31,0,0,1,154.13,1001.69Z"/><path class="cls-1" d="M273.3,861c-2.42,3.77-28.8,22.82-35.15,26.68-8.1,4.93-25,15.16-47.05,28.33-9.44,5.63-18.77,10.95-28.64,16.59C129,951.67,94.38,971.43,54.21,1003.88c-1.67,1.39-17.84,14.81-26.57,25.14-.25.3-.44.64-.71.94-11.4,12.46-12.9,33.93-12.52,51H26.29A62.47,62.47,0,0,1,34,1066.38c13.34-20.65,36.65-37.77,74.05-61.13,1.28-.8,35.92-21,36.34-21.22,7.42-4.27,15.37-8.82,23.28-13.34,9.75-5.57,19.45-11.1,28.06-16,1.43-.82,14.14-8,21.73-12.28l-.18-.11,3.06-1.72,2.89-1.61c14.69-8.16,20.14-11.74,31.25-19.84l.57-.42.11.07c2.35-1.72,5-3.63,7.94-5.83l.89-.66c16.38-12.6,19-32.19,19.14-33a81.6,81.6,0,0,0,1.45-15.2,94,94,0,0,0-3-24.51,30.45,30.45,0,0,1-2.27,12.14c0,.07,0,.14-.08.22A25.58,25.58,0,0,1,273.3,861Z"/><path class="cls-1" d="M266.21,1001.49s-11.84,9.2-20.06,14.14c-1,.6-50.14,30.16-51.67,31.06-7.88,4.65-15.76,9.14-24,13.86-1.25.71-32.3,18.75-34.18,19.88l-.94.57h71.35c11-6.27,20-11.32,24.4-13.77,17.66-9.81,21.95-13,40-26.28l.89-.66c18.58-13.69,20.59-38.26,20.59-48.19a94.33,94.33,0,0,0-3-24.54,29.51,29.51,0,0,1-3.07,14A31.93,31.93,0,0,1,281.3,989C281.22,989.07,277.37,993.69,266.21,1001.49Z"/><path class="cls-1" d="M77,834.43c0,6.39,2.61,7.78,3.16,8H183.59l8-8-8-8H80.16C79.64,826.64,77,828,77,834.43Z"/><path class="cls-1" d="M284.12,540c-.19.27-.38.54-.59.81l-.59.76-.93,1.1c-.12.13-.21.26-.33.39l-.29.32c-.11.16-4,4.77-15.08,12.54,0,0-11.84,9.2-20.06,14.14-1,.6-50.14,30.16-51.67,31.06-7.88,4.65-15.76,9.14-24,13.86-1.25.71-32.3,18.75-34.18,19.88-3.92,2.36-17.06,10.55-18.16,11.26-7.78,5-15.73,10.26-23.88,16q-3,2.14-6.13,4.38c-7.49,5.41-15.15,11.21-23,17.5l.1.07s-1.72,1.36-1.92,1.53c-8.38,7-15.21,12.76-20.71,18.45l-.72.75-.21-.22c-14.2,14.67-20.49,29.89-19,63.91a100.43,100.43,0,0,0,5,27.53,68.57,68.57,0,0,1,2.51-21.28,48.07,48.07,0,0,1,2.41-6.21l0-.08.12-.24c10.17-30.5,35-50.27,83.42-80.53,12.68-7.92,97.86-56.48,115-66,17.66-9.81,21.95-13,40-26.28l.89-.66c18.58-13.69,20.59-38.26,20.59-48.19a94,94,0,0,0-3.13-24.92,29.32,29.32,0,0,1-4.45,16.94c-.12.18-.23.36-.34.54S284.34,539.7,284.12,540Z"/><path class="cls-1" d="M285,93.31q-.29.41-.6.81c-.19.25-.38.5-.59.76s-.61.73-.93,1.1c-.11.13-.21.26-.33.39l-.29.32c-.11.16-4,4.77-15.08,12.54,0,0-11.84,9.2-20.06,14.14-1,.6-50.14,30.16-51.67,31.06-7.88,4.65-15.76,9.14-24,13.86-1.25.71-32.3,18.75-34.18,19.88-3.92,2.36-17.06,10.55-18.16,11.26-7.78,5-15.73,10.26-23.88,16q-3,2.15-6.13,4.38c-7.9,5.71-16,11.86-24.34,18.55l.5.36-1.92,1.54c-8.37,7-15.21,12.76-20.7,18.45l-.73.74-.39-.4c-13.42,14.32-19.36,29.63-17.95,62.75a100.43,100.43,0,0,0,5,27.53,68.57,68.57,0,0,1,2.51-21.28,48.07,48.07,0,0,1,2.41-6.21l0-.08.12-.24c10.17-30.5,35-50.27,83.42-80.53,12.68-7.92,97.86-56.48,115-66,17.66-9.81,22-13,40-26.28L273,148c18.58-13.69,20.59-38.26,20.59-48.19a93.89,93.89,0,0,0-3.13-24.91A29.3,29.3,0,0,1,286,91.86c-.11.18-.22.36-.34.54S285.25,93,285,93.31Z"/><path class="cls-1" d="M273.4,415.39c-2.42,3.77-28.8,22.82-35.15,26.68-8.1,4.93-25,15.16-47.05,28.33-9.44,5.63-18.77,11-28.64,16.59-33.47,19.12-68.08,38.88-108.25,71.33-1.67,1.39-17.84,14.81-26.57,25.14-.26.3-.44.64-.71.94-12.56,13.73-13.1,38.38-12.35,56.1a100.81,100.81,0,0,0,5,27.53c0-.86,0-1.77,0-2.72,0-.26,0-.53,0-.8s0-.55,0-.83c0-.55,0-1.11.06-1.69.11-2.26.31-4.66.67-7.12a52.37,52.37,0,0,1,1.61-7.5c.05-.21.12-.41.18-.62.51-1.66,2.48-6.46,2.5-6.52h0a65.7,65.7,0,0,1,9.37-19.4c13.34-20.65,36.65-37.77,74.05-61.13,1.28-.8,35.92-21,36.34-21.22,7.42-4.27,15.37-8.82,23.28-13.34,9.75-5.57,19.45-11.1,28.06-16,1.41-.81,13.89-7.86,21.5-12.16l-.05,0,3.07-1.71c1.09-.62,2.06-1.16,2.88-1.61,14.69-8.16,20.14-11.75,31.25-19.85l.57-.42h0c2.41-1.75,5.07-3.72,8.14-6l.89-.66c16.38-12.6,19-32.19,19.14-33a81.6,81.6,0,0,0,1.45-15.2,93.87,93.87,0,0,0-3.13-24.9,34.49,34.49,0,0,1-.67,7.59v0c-.1.47-.21.93-.33,1.41l-.09.34c-.11.4-.24.81-.37,1.22s-.28.81-.44,1.22l-.24.65c0,.09-.07.18-.1.27A25.58,25.58,0,0,1,273.4,415.39Z"/><path class="cls-1" d="M134.67,1046.69H53.58a117,117,0,0,0-14.61,16h95.7l8-8Z"/><path class="cls-1" d="M28.73,1080.54l-.18.46H131.91c11.48-6.9,25.81-15.47,27.28-16.31H138.67l10-10-10-10h55.26c1.38-.81,41.41-24.83,41.68-25H163l-.1,0c-.23,0-5.8-1.26-5.8-10s5.57-9.93,5.8-10l.2,0h102.2l6.59-5.05a42.85,42.85,0,0,0,7.84-6.92c-1.59-2.23-6-6.59-17.39-15H209.67l-10-10,10-10h23.62l-13.95-9.06-16,9.05h3.19l-10,10,10,10H168.21c-.16.09-45.19,26-46.89,27h37l-1.53,1.67a13.51,13.51,0,0,0-3,8.33,12.35,12.35,0,0,0,2.95,8.29l1.72,1.71h-2.42l-66.7-.07c-14.26,9.47-25,17.49-33.5,25.07h79.61l10,10-10,10H37.57A73.54,73.54,0,0,0,28.73,1080.54Z"/><path class="cls-1" d="M255.18,921.25C244,929.39,238.43,933,224.07,941l-2.74,1.55c5.63,3.61,10.63,6.87,15.24,9.91h38.77l.12,0c.19,0,4.75,1.28,4.75,10a14.19,14.19,0,0,1-1.5,7,5.88,5.88,0,0,1-3.39,3.19l-.11,0h-9.54c7.88,5.93,13,10.44,15.35,13.44a29.49,29.49,0,0,0,3.1-4.49c.11-.19.22-.38.32-.57s.14-.3.22-.45c3.22-6.53,2.86-12.63,2.57-17.42-.07-1.25-.15-2.43-.15-3.51l.07-.26C284.05,950.66,272.28,933.39,255.18,921.25Z"/><path class="cls-1" d="M39.16,797.43h62.59a12.53,12.53,0,0,1-2.75-7.5c0-4.38,1.16-7,2.32-8.5H39.16c-.52.21-3.16,1.57-3.16,8C36,796.43,39.1,797.41,39.16,797.43Z"/><path class="cls-1" d="M143.49,1062.69h19.19l6.79-3.88c7.23-4.13,14.16-8.09,21.06-12.12h-47l8,8Z"/><path class="cls-1" d="M202.5,962.69l8,8h49.11l-.34-.26h15.79a4.17,4.17,0,0,0,1.95-2,13.06,13.06,0,0,0,1.07-5.76c0-6.39-2.61-7.78-3.16-8H210.5Z"/><path class="cls-1" d="M159.08,1009.69c0,6.54,3.52,7.83,4.12,8h75.71l6.2-3.76c3.37-2,10.54-7.1,17.48-12.24H163.2C162.62,1001.85,159.08,1003.13,159.08,1009.69Z"/><path class="cls-1" d="M201.67,954.69h-1.9c-8.47,4.81-18.2,10.35-28.08,16h30l-8-8Z"/><path class="cls-1" d="M67.18,654.13c0,6.64,4.45,7.86,5.1,8H90.89c8.06-5.74,15.92-11,23.61-16H71.3C70.72,646.29,67.18,647.57,67.18,654.13Z"/><path class="cls-1" d="M70.1,847.55C93.41,865,124.66,885.2,163,907.49c.08,0,8.56,4.91,19.24,11.18q4-2.32,8-4.69c9.63-5.75,18.56-11.1,26.56-15.93l-2.36-1.41-12.06-7.21h-6.47s-7.37-1-8.73-8.17a7.26,7.26,0,0,1-.1-.86l-2.92-1.47a2.52,2.52,0,0,0-.12.51c0,5,4.64,10,4.64,10H142.88l-.12,0c-.2,0-4.76-1.29-4.76-10,0-.37,0-.73,0-1.07.36-7.71,4.55-8.85,4.74-8.9l.24,0h23.49c-17.76-9.66-33-18.06-45.33-25H79.88l-.12,0c-.2,0-4.76-1.29-4.76-10s4.56-9.92,4.76-10l.24,0h7.93c-15.33-10-25.8-17.74-33.65-25l-15.52,0c-.2,0-4.76-1.29-4.76-10,0-8,3.93-9.63,4.24-9.77a51.38,51.38,0,0,1-3.75-8.73c-.49,1.21-.94,2.45-1.32,3.71-3.23,10.47-2.47,21.81-2.12,26.8C40.37,823.33,56.81,837.58,70.1,847.55Z"/><path class="cls-1" d="M160.09,117.43c0,6.54,3.52,7.83,4.12,8h75.71l6.2-3.76c3.37-2,10.54-7.1,17.48-12.24H164.21C163.63,109.59,160.09,110.87,160.09,117.43Z"/><path class="cls-1" d="M144.5,170.43h19.19l6.79-3.88c7.23-4.13,14.16-8.09,21.06-12.12h-47l8,8Z"/><path class="cls-1" d="M68.09,207.43c0,6.64,4.45,7.86,5.1,8H91.8c8.06-5.74,15.92-11,23.61-16H72.21C71.63,199.59,68.09,200.87,68.09,207.43Z"/><path class="cls-1" d="M26.34,643.43h.32l-.15-.43C26.45,643.14,26.39,643.29,26.34,643.43Z"/><path class="cls-1" d="M41.54,256.12c5.51-5.61,12.16-11.18,20-17.68-10.06-7.37-17.42-13.88-23-20.36l-13.51,0a5,5,0,0,1-2.2-1.46c0,.36,0,.71,0,1s0,.72,0,1.06c-.05,3.88.18,7.29.32,9.39A96,96,0,0,0,41.54,256.12Z"/><path class="cls-1" d="M155.14,109.43H118.91c-4,2.37-7.07,4.19-8.79,5.26-5.93,3.71-11.5,7.25-16.73,10.67l61.68.07a15,15,0,0,1-2.23-8A15.31,15.31,0,0,1,155.14,109.43Z"/><path class="cls-1" d="M202.68,62.43h-1.9c-8.47,4.81-18.2,10.35-28.08,16h30l-8-8Z"/><path class="cls-1" d="M275.93,62.43H211.5l-8,8,8,8h48.74l-.06-.05H276a3.32,3.32,0,0,0,1.22-.91c.89-1,1.9-3.07,1.9-7C279.09,64,276.48,62.65,275.93,62.43Z"/><path class="cls-1" d="M282,1c-.05.09-.09.19-.13.28-.19.37-1.57,3.5-2.23,4.62A60.1,60.1,0,0,1,265.3,22.3c-2.84,2.09-5.33,3.93-7.6,5.58C274.21,39.74,284.93,55.25,289,64.26l.11-.38.69,2.3.32.88,0,.3a91.78,91.78,0,0,1,5.47,32.48c0,10.23-2.09,35.57-21.41,49.81l-.89.65c-18.13,13.37-22.44,16.54-40.21,26.41-17.17,9.54-102.3,58.07-115,66-8.62,5.38-16.47,10.43-23.63,15.26l3.55,2.2c30.6,17.77,86.38,47.67,86.94,48,.32.19,28,16.78,57,34C260.2,353,272.12,365.39,279.17,381v-.35l1,2.66c.34.82.67,1.63,1,2.46l.06.17v.16a86.31,86.31,0,0,1,5.46,32.48c-.21,9.59-1.21,20.59-5.68,29.44-.19.36-1.57,3.5-2.23,4.62A60.1,60.1,0,0,1,264.39,469l-7.6,5.58C273.3,486.43,284,501.94,288.05,511l.11-.38.69,2.3c.11.3.22.6.31.88l0,.29a91.88,91.88,0,0,1,5.47,32.49c0,10.23-2.09,35.57-21.41,49.81l-.89.65c-18.13,13.37-22.44,16.54-40.21,26.41-17.17,9.54-102.3,58.07-115,66-8,5-15.39,9.74-22.16,14.27l3,1.84c30.6,17.77,86.38,47.67,86.94,48,.32.19,28,16.78,57,34,20,11.9,32.45,25.75,39.14,43.59l.06.17v.18c0,.16,0,.32,0,.48a86.11,86.11,0,0,1,5.36,32.19c-.21,9.59-1.21,20.59-5.68,29.44-.19.37-1.56,3.5-2.23,4.62a60.1,60.1,0,0,1-14.38,16.4L256.88,920C273.31,931.83,284,947.26,288,956.26l0-.12.19.64c.36.84.67,1.63.91,2.34l0,.31c0,.16,0,.34,0,.51a92,92,0,0,1,5.35,32.16c0,10.23-2.09,35.57-21.41,49.81l-.89.65c-18.13,13.37-22.44,16.54-40.21,26.41-4,2.22-11.71,6.57-21.33,12H309V1Z"/><path class="cls-1" d="M183.16,26.62q4-2.32,8-4.69c9.63-5.75,18.56-11.1,26.56-15.93l-2.36-1.41L209.3,1H139.59q11.64,7.07,24.33,14.44C164,15.48,172.48,20.35,183.16,26.62Z"/><path class="cls-1" d="M14,1055.38c.48-3.84,2.34-18.69,17.46-33.93,5.93-6,13-12,21.45-19.12,40.31-32.55,75-52.36,108.53-71.52,6.49-3.71,12.74-7.28,18.94-10.89-10.27-6-18.32-10.65-18.41-10.7-38.41-22.33-69.73-42.54-93.1-60.07-13-9.79-29.06-23.67-38.7-44.75l.25,3-2.34-4.61a100.41,100.41,0,0,1-7.43-34.18c-1.49-35,5-50.46,19.66-65.49a97.86,97.86,0,0,1-19.12-28.86l-1.11.53a100.64,100.64,0,0,1-7.43-34.18c-.47-11-.21-17.46,1.45-30.77.47-3.85,2.34-18.69,17.46-33.93,5.92-6,13-12,21.45-19.12,40.31-32.55,75-52.36,108.53-71.52,6.41-3.66,12.58-7.2,18.71-10.76-10.21-6-18.19-10.57-18.27-10.62-38.41-22.33-69.73-42.54-93.1-60.07-13.52-10.15-30.27-24.67-39.76-47.08,0,0,0-.16,0-.46l-.1-.19a100.41,100.41,0,0,1-7.43-34.18c-1.45-34.06,4.69-49.65,18.57-64.34a97.72,97.72,0,0,1-19-28.83s0-.26-.06-.69l-.07,0a100.64,100.64,0,0,1-7.43-34.18c-.47-11-.21-17.46,1.45-30.77.48-3.84,2.34-18.69,17.46-33.93,5.93-6,13-12,21.45-19.12,40.31-32.55,75-52.36,108.53-71.52,6.41-3.66,12.58-7.2,18.71-10.76C171,21.79,163,17.22,162.92,17.17Q148.67,8.89,135.73,1H0V1081H12.41A159,159,0,0,1,14,1055.38Z"/><path class="cls-1" d="M22.66,216h0s0,.1,0,.14h.16Z"/><path class="cls-1" d="M135.68,154.43H54.59a117,117,0,0,0-14.61,16h95.7l8-8Z"/><path class="cls-1" d="M256,29.12C245,37.17,239.36,40.78,225.08,48.71l-3,1.67c5.68,3.65,10.73,6.93,15.37,10h38.77l.12,0c.19.05,4.76,1.29,4.76,10,0,4.37-1.16,6.85-2.33,8.25a5.17,5.17,0,0,1-2.47,1.77l-.12,0h-9.9c8,6,13.26,10.6,15.61,13.63.08-.09.17-.18.24-.27l.35-.45c.33-.42.65-.84.95-1.26.08-.11.15-.22.22-.33.32-.47.63-.93.9-1.39l.11-.18c4.27-7.21,3.86-14,3.55-19.24-.07-1.25-.15-2.42-.15-3.5C285,58.67,273.19,41.29,256,29.12Z"/><path class="cls-1" d="M265,20A50,50,0,0,0,279.82,1H229.88c-9.15,5.54-22.15,13.38-37.77,22.7-9.44,5.63-18.77,11-28.64,16.59C130,59.41,95.39,79.17,55.22,111.62c-1.67,1.39-17.84,14.81-26.57,25.14-.26.3-.44.64-.71.94-12.56,13.73-13.1,38.38-12.35,56.1a100.81,100.81,0,0,0,5,27.53c0-.86,0-1.77,0-2.72,0-.26,0-.53,0-.8s0-.55,0-.83c0-.55,0-1.11.06-1.69.11-2.26.31-4.66.67-7.12a52.37,52.37,0,0,1,1.61-7.5c.05-.21.12-.41.18-.62.51-1.66,2.48-6.46,2.5-6.52h0A65.7,65.7,0,0,1,35,174.12c13.34-20.65,36.65-37.77,74.05-61.13,1.28-.8,35.92-21,36.34-21.22,7.42-4.27,15.37-8.82,23.28-13.34,9.75-5.57,19.45-11.1,28.06-16,1.42-.81,13.89-7.86,21.5-12.15l-.05,0,3.07-1.71,2.88-1.61c14.69-8.16,20.14-11.75,31.25-19.84l.57-.42h0c2.4-1.75,5.06-3.71,8.13-6Z"/><path class="cls-1" d="M213.19,1l3.15,1.88,3.3,2L226,1Z"/><path class="cls-1" d="M25.25,215.43H63.56a11.79,11.79,0,0,1-2.47-8c.13-4.1,1.17-6.54,2.24-8H27.14l-1.76.65h-.15c-.07.2-.13.39-.18.56a55.88,55.88,0,0,0-2.18,11.86A4.76,4.76,0,0,0,25.25,215.43Z"/><path class="cls-1" d="M39.17,352.08h62.59a12.53,12.53,0,0,1-2.75-7.5c0-4.38,1.16-7,2.32-8.5H39.17c-.52.21-3.16,1.57-3.16,8C36,351.08,39.11,352.06,39.17,352.08Z"/><path class="cls-1" d="M70.11,402.2c23.31,17.48,54.56,37.65,92.9,59.94.08,0,8.56,4.91,19.24,11.18q4-2.32,8-4.69c9.63-5.75,18.56-11.1,26.56-15.93l-2.36-1.41-12.06-7.21h-6.47s-7.37-1-8.73-8.17a7.51,7.51,0,0,1-.1-.86l-2.92-1.47a2.52,2.52,0,0,0-.12.51c0,5,4.64,10,4.64,10H142.89l-.12,0c-.2-.05-4.76-1.29-4.76-10,0-.37,0-.73,0-1.07.36-7.71,4.55-8.85,4.74-8.9l.24,0H166.5c-17.76-9.66-33-18.06-45.33-25H79.89l-.12,0c-.2-.05-4.76-1.29-4.76-10s4.56-9.92,4.76-10l.24,0h7.93c-15.33-10-25.8-17.74-33.65-25l-15.52,0c-.2-.05-4.76-1.29-4.76-10,0-8,3.93-9.63,4.24-9.77a51.38,51.38,0,0,1-3.75-8.73c-.49,1.21-.94,2.45-1.32,3.71-3.23,10.47-2.47,21.81-2.12,26.8C40.38,378,56.82,392.23,70.11,402.2Z"/><path class="cls-1" d="M77,389.08c0,6.39,2.61,7.78,3.16,8H183.6l8-8-8-8H80.17C79.65,381.29,77,382.65,77,389.08Z"/><path class="cls-1" d="M206.25,444.08l9.18,5.5,3.3,2,12.36-7.47Z"/><path class="cls-1" d="M140,432.85c0,.18,0,.36,0,.55s0,.45,0,.68c0,6.39,2.61,7.78,3.16,8h41.62a13.37,13.37,0,0,1-2.78-8c0-4.12,1-6.56,2.13-8h-41.9C141.86,426.34,140.26,427.71,140,432.85Z"/><path class="cls-1" d="M255.09,475.82c-11.05,8.05-16.65,11.66-30.92,19.59l-3,1.67c5.68,3.65,10.72,6.93,15.37,10h38.77l.12,0c.19.05,4.76,1.29,4.76,10,0,4.37-1.16,6.85-2.33,8.25a5.25,5.25,0,0,1-2.47,1.77l-.12,0h-9.9c8,6,13.26,10.59,15.61,13.63l.24-.27.35-.45c.33-.42.65-.84.95-1.26.07-.11.14-.22.22-.33.32-.47.62-.93.9-1.4a1,1,0,0,0,.1-.17c4.28-7.21,3.87-14,3.56-19.24-.07-1.25-.15-2.42-.15-3.5C284.1,505.37,272.28,488,255.09,475.82Z"/><path class="cls-1" d="M23.36,661.45l16.33.33.3.35H62.65a11.79,11.79,0,0,1-2.47-8c.13-4.1,1.17-6.54,2.24-8H24.55c-.16.43-.3.85-.41,1.21A55.88,55.88,0,0,0,22,659.2,6.09,6.09,0,0,0,23.36,661.45Z"/><path class="cls-1" d="M41.74,701.7c5.4-5.35,11.82-10.71,19.3-16.93.1-.09.4-.32.86-.67-9.91-7.24-17.21-13.63-22.81-20h-15l-.12,0a4.7,4.7,0,0,1-1.2-.6c0,.18,0,.37,0,.55,0,3.89.18,7.3.33,9.4A96.12,96.12,0,0,0,41.74,701.7Z"/><path class="cls-1" d="M145,300.08c0-6.39-2.61-7.78-3.16-8H76.42l-8,8,8,8h65.43C142.37,307.87,145,306.51,145,300.08Z"/><path class="cls-1" d="M29.74,188.28c-.17.44-2.17,5.78-2.2,5.88s-.19.45-.39,1l.5-.69c.27,1,.58,2,.91,3H67.7s-4.38,3-4.61,10c-.19,5.78,4.55,10,4.55,10H40.57c5.51,6.24,12.74,12.56,22.55,19.73,5.12-3.94,24.85-19,25.88-19.73H72.93c-.07,0-6.84-1.24-6.84-10s5.57-9.93,5.8-10l.2,0h46.46c2.79-1.78,39.26-23.63,41.65-25H139.68l10-10-10-10h55.26c1.38-.81,41.41-24.83,41.68-25H164l-.1,0c-.23,0-5.8-1.26-5.8-10s5.57-9.93,5.8-10l.2,0h102.2l6.59-5.05a45.62,45.62,0,0,0,7.71-6.76C279,93.35,274.5,88.94,263,80.43H210.68l-10-10,10-10h23.2L220.13,51.5c-6,3.37-15.31,8.63-15.82,8.93h3.19l-10,10,10,10H169.22c-.16.09-45.19,26-46.89,27h37l-1.53,1.67a13.51,13.51,0,0,0-3,8.33,12.35,12.35,0,0,0,2.95,8.29l1.72,1.71h-2.42l-66.7-.07c-14.26,9.47-25,17.49-33.5,25.07H136.5l10,10-10,10H38.58A73.54,73.54,0,0,0,29.74,188.28Z"/><path class="cls-1" d="M189,434.08c0,.26,0,1.08,0,1.24,0,4.76,6.47,6.76,8,6.75h37.34l2.91-1.77c3.56-2.16,12.37-8.39,20.16-14.23h-63.3C193.48,426.22,189,427.43,189,434.08Z"/><path class="cls-1" d="M59.59,300.08l8-8H53.9a92.17,92.17,0,0,0-11.66,16H67.59Z"/><path class="cls-1" d="M54.94,290.08H72.42l-10,10,10,10H40.66a82.08,82.08,0,0,0-5,11.78l-.08.19.1.37a48.82,48.82,0,0,0,4.76,11.66h65.1a13.44,13.44,0,0,0-4.51,10.5c0,4.47,4.64,9.5,4.64,9.5H57.26c8,7.17,18.78,15,34.36,25h92.8l10,10-10,10-59.18,0c12.53,7,27.78,15.42,45.45,25h17.82a11.5,11.5,0,0,0-4.26,7.27c.45.24,1,.54,1.47.82s.94.54,1.34.76c.55-7.71,6.72-8.82,6.79-8.84h66.23c6-4.57,10.91-8.57,11.61-9.74-1.63-2.27-6.09-6.69-17.71-15.26H187.6l10-10-10-10H225c-5.74-3.76-12.12-7.87-19-12.25-5.48-3.48-12.49-7.77-20.85-12.76H111.87a9.61,9.61,0,0,1-7.86-10c0-8.75,6.77-10,6.83-10H151c-14-8.2-27.36-16.27-39.62-24H75.6l-10-10,10-10h5.27c-5.25-3.59-10.27-7.15-15-10.6A142.39,142.39,0,0,0,54.94,290.08Z"/><path class="cls-1" d="M241,343.86c-29-17.24-56.73-33.84-57-34-.52-.28-56.33-30.19-87-48l-3.76-2.33a299.82,299.82,0,0,0-25.29,19c5.17,3.76,10.69,7.64,16.45,11.56l57.84,0c.2.05,4.76,1.29,4.76,10s-4.56,9.92-4.76,10l-.24,0H115.09c12.36,7.74,25.74,15.81,39.83,24h59.21l.12,0c.2.05,4.76,1.29,4.76,10s-4.56,9.92-4.76,10l-.24,0H189c7.12,4.28,13.17,8,18,11.08,7.9,5,15.14,9.7,21.52,13.92h35.56l.12,0c.2.05,4.76,1.29,4.76,10s-4.56,9.92-4.76,10l-.24,0h-6.67c8.08,6.06,13.34,10.65,15.69,13.69a32.74,32.74,0,0,0,2.38-3.26,42.94,42.94,0,0,0,2-3.9c.18-.42.49-1.26.49-1.26,1.55-5.22,1.55-6.22,1.48-13.54h0c0-.66-.07-1.26-.09-1.82s-.06-.93-.07-1.16c0-.58,0-1.12-.05-1.65C272.64,368.91,260.5,355.46,241,343.86Z"/><path class="cls-1" d="M267,389.08c0-6.39-2.61-7.78-3.16-8H192.42l8,8-8,8h71.43C264.37,396.87,267,395.51,267,389.08Z"/><path class="cls-1" d="M217,344.08c0-6.39-2.61-7.78-3.16-8H111.11c-.63.14-5.1,1.35-5.1,8s5.39,7.88,6.08,8H213.85C214.37,351.87,217,350.51,217,344.08Z"/></g></svg>