<svg xmlns="http://www.w3.org/2000/svg" xmlns:xlink="http://www.w3.org/1999/xlink" viewBox="0 0 1920 1080"><defs><style>.cls-1,.cls-3{fill:none;}.cls-2{clip-path:url(#clip-path);}.cls-3{stroke:#000;stroke-miterlimit:10;}</style><clipPath id="clip-path"><rect class="cls-1" width="1920" height="1080"/></clipPath></defs><title>dna-outline</title><g id="Layer_1" data-name="Layer 1"><g class="cls-2"><path class="cls-3" d="M946.12,346l16.08,9.62c-8.05,4.86-17.48,10.52-28,16.79q-4.23,2.52-8.47,5c-11-6.49-19.74-11.48-19.74-11.48-43-25-73-45-93-60-13.85-10.39-30.1-24.62-39.44-46.67-.38-5.4-1.12-16.71,2.15-27.34a46.3,46.3,0,0,1,2.47-6.31,50.65,50.65,0,0,0,5.14,12.4h-.82s-4,1-4,9,4,9,4,9h15.67c9.19,8.55,21.36,17.18,36.65,27H823.5s-4,1-4,9,4,9,4,9h41.42c16.23,9.13,34.88,19.33,49,27H886.5s-4,1-4,9,4,9,4,9h45a12.91,12.91,0,0,1-4-9q0-.87.06-1.62L930.5,337v0c0,8,7,9,7,9Z"/><path class="cls-3" d="M1024.43,445.32c-1.34-2.22-5.6-6.74-18.62-16.32h12.9s4-1,4-9-4-9-4-9h-39c-5.09-3.37-10.75-7.05-17-11.08l4.49-2.51c14.48-8,19.9-11.56,31.35-19.91,18.29,12.73,30.23,30.85,33.15,39.5C1031.73,423.61,1034.39,434.24,1024.43,445.32Z"/><path class="cls-3" d="M805.5,203l9,9H784A93.34,93.34,0,0,1,797,194H814.5Z"/><path class="cls-3" d="M889.5,203c0,8-4,9-4,9h-67l-9-9,9-9h67S889.5,195,889.5,203Z"/><path class="cls-3" d="M782.5,256s-4-1-4-9,4-9,4-9h66s-4,1.5-4,9.5c0,5,4,8.5,4,8.5Z"/><path class="cls-3" d="M961.5,247c0,8-4,9-4,9h-104s-6-1-6-9,5-9,5-9h105S961.5,239,961.5,247Z"/><path class="cls-3" d="M819.5,292c0-8,4-9,4-9h105l9,9-9,9h-105S819.5,300,819.5,292Z"/><path class="cls-3" d="M941.5,292l-9-9h75s4,1,4,9-4,9-4,9h-75Z"/><path class="cls-3" d="M931.5,346h-45s-4-1-4-9,4-9,4-9h45s-4,1-4,9a12.91,12.91,0,0,0,4,9Z"/><path class="cls-3" d="M1003.89,328c-8.42,6.4-18.73,13.72-22.63,16.09L978.11,346H937.5s-7-1-7-9,6-9,6-9Z"/><path class="cls-3" d="M768.71,102a2.18,2.18,0,0,0-.4.16c.51-1.36,1.12-2.84,1.51-3.78.16-.39.28-.68.34-.84,0,0,0,0,0,.06a44.92,44.92,0,0,0,1.39,4.4Z"/><path class="cls-3" d="M807.12,141.68l-.91.73c-8.27,6.89-15.17,12.71-20.78,18.52a98.24,98.24,0,0,1-19.87-29.68c-.16-2.3-.39-5.69-.34-9.63,0-.35,0-.71,0-1.07,0-.72,0-1.46.08-2.22,0-.38,0-.76.07-1.14s0-.68.07-1c1.16,3.32,3.25,3.84,3.25,3.84h13.72C788.58,127.19,796.78,134.21,807.12,141.68Z"/><path class="cls-3" d="M1016.43,317.32c-1.34-2.22-5.6-6.74-18.62-16.32h9.69s4-1,4-9-4-9-4-9H971.76c-6.33-4.19-13.54-8.86-21.76-14.08-6.1-3.87-13.66-8.47-21.11-12.92H957.5s4-1,4-9-4-9-4-9H898.15l-.15-.08c-16.06-9.34-30.3-18-42.89-25.92H885.5s4-1,4-9-4-9-4-9H827.59q-9.84-6.69-17.75-12.5a294.86,294.86,0,0,1,26.88-20.24l4.28,2.66c31,18,87,48,87,48s27.66,16.56,57,34c21.81,13,32.76,27.21,38.71,43.08,0,1.92.11,3.86.31,6.62a.34.34,0,0,0,0,.1C1024.21,301.85,1023.49,309.47,1016.43,317.32Z"/><path class="cls-3" d="M945.12,792l16.08,9.62c-8.05,4.86-17.48,10.52-28,16.79q-4.23,2.52-8.47,5c-11-6.49-19.74-11.48-19.74-11.48-43-25-73-45-93-60-13.85-10.39-30.1-24.62-39.44-46.67-.38-5.4-1.12-16.71,2.15-27.34a46.3,46.3,0,0,1,2.47-6.31,50.65,50.65,0,0,0,5.14,12.4h-.82s-4,1-4,9,4,9,4,9h15.67c9.19,8.55,21.36,17.18,36.65,27H822.5s-4,1-4,9,4,9,4,9h41.42c16.23,9.13,34.88,19.33,49,27H885.5s-4,1-4,9,4,9,4,9h45a12.91,12.91,0,0,1-4-9q0-.87.06-1.62L929.5,783v0c0,8,7,9,7,9Z"/><path class="cls-3" d="M1023.43,891.32c-1.34-2.22-5.6-6.74-18.62-16.32h12.9s4-1,4-9-4-9-4-9h-39c-5.09-3.37-10.75-7-17-11.08l4.49-2.51c14.48-8,19.9-11.56,31.35-19.91,18.29,12.73,30.23,30.85,33.15,39.5C1030.73,869.61,1033.39,880.24,1023.43,891.32Z"/><path class="cls-3" d="M804.5,649l9,9H783A93.34,93.34,0,0,1,796,640H813.5Z"/><path class="cls-3" d="M888.5,649c0,8-4,9-4,9h-67l-9-9,9-9h67S888.5,641,888.5,649Z"/><path class="cls-3" d="M781.5,702s-4-1-4-9,4-9,4-9h66s-4,1.5-4,9.5c0,5,4,8.5,4,8.5Z"/><path class="cls-3" d="M960.5,693c0,8-4,9-4,9h-104s-6-1-6-9,5-9,5-9h105S960.5,685,960.5,693Z"/><path class="cls-3" d="M818.5,738c0-8,4-9,4-9h105l9,9-9,9h-105S818.5,746,818.5,738Z"/><path class="cls-3" d="M940.5,738l-9-9h75s4,1,4,9-4,9-4,9h-75Z"/><path class="cls-3" d="M930.5,792h-45s-4-1-4-9,4-9,4-9h45s-4,1-4,9a12.91,12.91,0,0,0,4,9Z"/><path class="cls-3" d="M1002.89,774c-8.42,6.4-18.73,13.72-22.63,16.09L977.11,792H936.5s-7-1-7-9,6-9,6-9Z"/><path class="cls-3" d="M767.71,548a2.18,2.18,0,0,0-.4.16c.51-1.36,1.12-2.84,1.51-3.78.16-.39.28-.68.34-.84,0,0,0,0,0,.06a44.92,44.92,0,0,0,1.39,4.4Z"/><path class="cls-3" d="M806.12,587.68l-.91.73c-8.27,6.89-15.17,12.71-20.78,18.52a98.24,98.24,0,0,1-19.87-29.68c-.16-2.3-.39-5.69-.34-9.63,0-.35,0-.71,0-1.07,0-.72,0-1.46.08-2.22,0-.38,0-.76.07-1.14s0-.68.07-1c1.16,3.32,3.25,3.84,3.25,3.84h13.72C787.58,573.19,795.78,580.21,806.12,587.68Z"/><path class="cls-3" d="M1015.43,763.32c-1.34-2.22-5.6-6.74-18.62-16.32h9.69s4-1,4-9-4-9-4-9H970.76c-6.33-4.19-13.54-8.86-21.76-14.08-6.1-3.87-13.66-8.47-21.11-12.92H956.5s4-1,4-9-4-9-4-9H897.15l-.15-.08c-16.06-9.34-30.3-18-42.89-25.92H884.5s4-1,4-9-4-9-4-9H826.59q-9.84-6.69-17.75-12.5a294.86,294.86,0,0,1,26.88-20.24l4.28,2.66c31,18,87,48,87,48s27.66,16.56,57,34c21.81,13,32.76,27.21,38.71,43.08,0,1.92.11,3.86.31,6.62a.34.34,0,0,0,0,.1C1023.21,747.85,1022.49,755.47,1015.43,763.32Z"/><path id="RightSparWithBars" class="cls-3" d="M1036.21,895.46c0,10-2,35-21,49s-23,17-41,27-102.77,58.36-115,66c-48,30-73,50-83,80l0,.08a46.13,46.13,0,0,0-2.52,6.42c-3.27,10.63-2.53,21.94-2.15,27.34a98.72,98.72,0,0,1-7.35-33.84c-2-47,10-58,40-83,10.16-8.21,20-15.62,29.54-22.41h-20s-6-1-6-9,5-9,5-9h47.75c15.63-10,30.58-18.68,45.12-27H882.71l9-9-9-9h54.13q2.19-1.29,4.37-2.59c16.62-9.91,30.57-18.32,40.61-24.41H904.71s-5-1-5-9,5-9,5-9h103.53c7.42-5.56,14.09-10.88,14.89-12.35h0c10.3-11.19,7.59-22,7.57-28.64A91.58,91.58,0,0,1,1036.21,895.46Z"/><path class="cls-3" d="M1021.71,866.05c0,8-4,9-4,9h-66l-9-9,9-9h66S1021.71,858.05,1021.71,866.05Z"/><path id="RightSpar" class="cls-3" d="M800.56,1080.22c-11.87,11.59-19.72,23.34-24.35,37.24l0,.08a46.13,46.13,0,0,0-2.52,6.42c-3.27,10.63-2.53,21.94-2.15,27.34a98.72,98.72,0,0,1-7.35-33.84c-.68-16,.26-27.86,3-37.5"/><path id="RightSpar-2" data-name="RightSpar" class="cls-3" d="M767.2,1080c5.28-18.63,17.24-29,37-45.5,52-42,95.35-63.16,137-88,20.54-12.25,37-22.2,47-28.32,6.82-4.15,33.23-23.42,34.87-26.44h0c10.3-11.19,7.59-22,7.57-28.64a91.58,91.58,0,0,1,5.5,32.41c0,10-2,35-21,49s-23,17-41,27-102.77,58.36-115,66c-25.77,16.1-44.91,29.33-58.65,42.76"/><path id="LeftSparWithBars" class="cls-3" d="M1028.21,767.46c0,10-2,35-21,49s-23,17-41,27c-4.53,2.52-13.3,7.47-24.07,13.59h5.57l-9,9,9,9H910.57c-19.32,11-38.77,22.23-50.31,29h39.45a14.34,14.34,0,0,0-3.25,9,13.16,13.16,0,0,0,3.25,9l-68-.07c-14.48,9.6-26.3,18.34-35.8,27.07h82.8l9,9-9,9h-99a83.38,83.38,0,0,0-11.47,22.41l0,.08a45.49,45.49,0,0,0-2,4.69,2,2,0,0,1,.43-.18h42s-3.74,1-4,9c-.21,6.5,4,9,4,9h-42s-2.09-.52-3.25-3.84a99.29,99.29,0,0,0,.1,15.09,98.72,98.72,0,0,1-7.35-33.84c-2-47,10-58,40-83,52-42,95.35-63.16,137-88,20.54-12.25,37-22.2,47-28.32,6.82-4.15,33.23-23.42,34.87-26.44h0c10.3-11.19,7.59-22,7.57-28.64A91.58,91.58,0,0,1,1028.21,767.46Z"/><path id="LeftSpar" class="cls-3" d="M1028.21,767.46c0,10-2,35-21,49s-23,17-41,27-102.77,58.36-115,66c-48,30-73,50-83,80,0,0-1.79,4.2-2.5,6.5-3.27,10.63-2.53,21.94-2.15,27.34a98.72,98.72,0,0,1-7.35-33.84c-2-47,10-58,40-83,52-42,95.35-63.16,137-88,20.54-12.25,37-22.2,47-28.32,6.82-4.15,33.23-23.42,34.87-26.44h0c10.3-11.19,7.59-22,7.57-28.64A91.58,91.58,0,0,1,1028.21,767.46Z"/><path class="cls-3" d="M768.18,989.65q-.2.39-.36.78c.16-.39.28-.68.34-.84Z"/><path class="cls-3" d="M766.71,994a2.18,2.18,0,0,0-.4.16c.51-1.36,1.12-2.84,1.51-3.78.16-.39.28-.68.34-.84,0,0,0,0,0,.06a44.92,44.92,0,0,0,1.39,4.4Z"/><path class="cls-3" d="M805.12,1033.68l-.91.73c-8.27,6.89-15.17,12.71-20.78,18.52a98.24,98.24,0,0,1-19.87-29.68c-.16-2.3-.39-5.69-.34-9.63,0-.35,0-.71,0-1.07,0-.72,0-1.46.08-2.22,0-.38,0-.76.07-1.14s0-.68.07-1c1.16,3.32,3.25,3.84,3.25,3.84h13.72C786.58,1019.19,794.78,1026.21,805.12,1033.68Z"/><path class="cls-3" d="M816.86,1080q-4.79-3.35-9-6.46a294.86,294.86,0,0,1,26.88-20.24l4.28,2.66c31,18,87,48,87,48s27.66,16.56,57,34c21.81,13,32.76,27.21,38.71,43.08,0,1.92.11,3.86.31,6.62a.34.34,0,0,0,0,.1c.18,6.13-.54,13.75-7.6,21.6-1.34-2.22-5.6-6.74-18.62-16.32h9.69s4-1,4-9-4-9-4-9H969.76c-6.33-4.19-13.54-8.86-21.76-14.08-6.1-3.87-13.66-8.47-21.11-12.92H955.5s4-1,4-9-4-9-4-9H896.15l-.15-.08c-16.06-9.34-30.3-18-42.89-25.92H883.5s4-1,4-9-4-9-4-9H825.59q-4.58-3.11-8.73-6"/><path id="RightSparWithBars-2" data-name="RightSparWithBars" class="cls-3" d="M1038.21,3.41c0,10-2,35-21,49s-23,17-41,27-102.77,58.36-115,66c-48,30-73,50-83,80,0,0,0,.05,0,.08a46.13,46.13,0,0,0-2.52,6.42c-3.27,10.63-2.53,21.94-2.15,27.34a98.72,98.72,0,0,1-7.35-33.84c-2-47,10-58,40-83,10.16-8.21,20-15.62,29.54-22.41h-20s-6-1-6-9,5-9,5-9h47.75C878.09,92,893,83.32,907.58,75H884.71l9-9-9-9h54.13q2.19-1.29,4.37-2.59C959.83,44.5,973.78,36.09,983.82,30H906.71s-5-1-5-9,5-9,5-9h103.53c7.42-5.56,14.09-10.88,14.89-12.35h0c10.3-11.19,7.59-22,7.57-28.64A91.58,91.58,0,0,1,1038.21,3.41Z"/><path id="RightSpar-3" data-name="RightSpar" class="cls-3" d="M1038.21,3.41c0,10-2,35-21,49s-23,17-41,27-102.77,58.36-115,66c-48,30-73,50-83,80,0,0,0,.05,0,.08a46.13,46.13,0,0,0-2.52,6.42c-3.27,10.63-2.53,21.94-2.15,27.34a98.72,98.72,0,0,1-7.35-33.84c-2-47,10-58,40-83,52-42,95.35-63.16,137-88,20.54-12.25,37-22.2,47-28.32,6.82-4.15,33.23-23.42,34.87-26.44h0c10.3-11.19,7.59-22,7.57-28.64A91.58,91.58,0,0,1,1038.21,3.41Z"/><path id="LeftSparWithBars-2" data-name="LeftSparWithBars" class="cls-3" d="M1030.21-124.59c0,10-2,35-21,49s-23,17-41,27c-4.53,2.52-13.3,7.47-24.07,13.59h5.57l-9,9,9,9H912.57C893.25-6,873.8,5.23,862.26,12h39.45a14.34,14.34,0,0,0-3.25,9,13.16,13.16,0,0,0,3.25,9l-68-.07c-14.48,9.6-26.3,18.34-35.8,27.07h82.8l9,9-9,9h-99a83.38,83.38,0,0,0-11.47,22.41s0,0,0,.08a45.49,45.49,0,0,0-2,4.69,2,2,0,0,1,.43-.18h42s-3.74,1-4,9c-.21,6.5,4,9,4,9h-42s-2.09-.52-3.25-3.84a99.29,99.29,0,0,0,.1,15.09,98.72,98.72,0,0,1-7.35-33.84c-2-47,10-58,40-83,52-42,95.35-63.16,137-88,20.54-12.25,37-22.2,47-28.32,6.82-4.15,33.23-23.42,34.87-26.44h0c10.3-11.19,7.59-22,7.57-28.64A91.58,91.58,0,0,1,1030.21-124.59Z"/><path id="LeftSpar-2" data-name="LeftSpar" class="cls-3" d="M1030.21-124.59c0,10-2,35-21,49s-23,17-41,27-102.77,58.36-115,66c-48,30-73,50-83,80,0,0-1.79,4.2-2.5,6.5-3.27,10.63-2.53,21.94-2.15,27.34a98.72,98.72,0,0,1-7.35-33.84c-2-47,10-58,40-83,52-42,95.35-63.16,137-88,20.54-12.25,37-22.2,47-28.32,6.82-4.15,33.23-23.42,34.87-26.44h0c10.3-11.19,7.59-22,7.57-28.64A91.58,91.58,0,0,1,1030.21-124.59Z"/><path class="cls-3" d="M770.18,97.6q-.2.39-.36.78c.16-.39.28-.68.34-.84C770.17,97.56,770.17,97.58,770.18,97.6Z"/><path id="RightSparWithBars-3" data-name="RightSparWithBars" class="cls-3" d="M1037.21,449.46c0,10-2,35-21,49s-23,17-41,27-102.77,58.36-115,66c-48,30-73,50-83,80l0,.08a46.13,46.13,0,0,0-2.52,6.42c-3.27,10.63-2.53,21.94-2.15,27.34a98.72,98.72,0,0,1-7.35-33.84c-2-47,10-58,40-83,10.16-8.21,20-15.62,29.54-22.41h-20s-6-1-6-9,5-9,5-9h47.75c15.63-10,30.58-18.68,45.12-27H883.71l9-9-9-9h54.13q2.19-1.29,4.37-2.59c16.62-9.91,30.57-18.32,40.61-24.41H905.71s-5-1-5-9,5-9,5-9h103.53c7.42-5.56,14.09-10.88,14.89-12.35h0c10.3-11.19,7.59-22,7.57-28.64A91.58,91.58,0,0,1,1037.21,449.46Z"/><path class="cls-3" d="M1022.71,420.05c0,8-4,9-4,9h-66l-9-9,9-9h66S1022.71,412.05,1022.71,420.05Z"/><path id="RightSpar-4" data-name="RightSpar" class="cls-3" d="M1037.21,449.46c0,10-2,35-21,49s-23,17-41,27-102.77,58.36-115,66c-48,30-73,50-83,80l0,.08a46.13,46.13,0,0,0-2.52,6.42c-3.27,10.63-2.53,21.94-2.15,27.34a98.72,98.72,0,0,1-7.35-33.84c-2-47,10-58,40-83,52-42,95.35-63.16,137-88,20.54-12.25,37-22.2,47-28.32,6.82-4.15,33.23-23.42,34.87-26.44h0c10.3-11.19,7.59-22,7.57-28.64A91.58,91.58,0,0,1,1037.21,449.46Z"/><path id="LeftSparWithBars-3" data-name="LeftSparWithBars" class="cls-3" d="M1029.21,321.46c0,10-2,35-21,49s-23,17-41,27c-4.53,2.52-13.3,7.47-24.07,13.59h5.57l-9,9,9,9H911.57c-19.32,11-38.77,22.23-50.31,29h39.45a14.34,14.34,0,0,0-3.25,9,13.16,13.16,0,0,0,3.25,9l-68-.07c-14.48,9.6-26.3,18.34-35.8,27.07h82.8l9,9-9,9h-99a83.38,83.38,0,0,0-11.47,22.41l0,.08a45.49,45.49,0,0,0-2,4.69,2,2,0,0,1,.43-.18h42s-3.74,1-4,9c-.21,6.5,4,9,4,9h-42s-2.09-.52-3.25-3.84a99.29,99.29,0,0,0,.1,15.09,98.72,98.72,0,0,1-7.35-33.84c-2-47,10-58,40-83,52-42,95.35-63.16,137-88,20.54-12.25,37-22.2,47-28.32,6.82-4.15,33.23-23.42,34.87-26.44h0c10.3-11.19,7.59-22,7.57-28.64A91.58,91.58,0,0,1,1029.21,321.46Z"/><path id="LeftSpar-3" data-name="LeftSpar" class="cls-3" d="M1029.21,321.46c0,10-2,35-21,49s-23,17-41,27-102.77,58.36-115,66c-48,30-73,50-83,80,0,0-1.79,4.2-2.5,6.5-3.27,10.63-2.53,21.94-2.15,27.34a98.72,98.72,0,0,1-7.35-33.84c-2-47,10-58,40-83,52-42,95.35-63.16,137-88,20.54-12.25,37-22.2,47-28.32,6.82-4.15,33.23-23.42,34.87-26.44h0c10.3-11.19,7.59-22,7.57-28.64A91.58,91.58,0,0,1,1029.21,321.46Z"/><path class="cls-3" d="M769.18,543.65q-.2.39-.36.78c.16-.39.28-.68.34-.84Z"/></g></g></svg>